<svg xmlns="http://www.w3.org/2000/svg" viewBox="99 529.2 82.2 82.2"><path fill="#f9cb42" d="M159.52 547.45L178 562.86L178.13 609.25L102.15 609.25L102.03 562.86L120.75 547.45M129.19 540.51L140.26 531.4L151.19 540.51L129.19 540.51Z"/><path fill="#161616" d="M131 539.86L149.4 539.86L140.26 532.25L131 539.86ZM151.19 541.16L129.19 541.16C128.91 541.16 128.67 540.99 128.58 540.73C128.48 540.47 128.56 540.18 128.78 540.01L139.85 530.9C140.09 530.7 140.44 530.7 140.68 530.9L151.61 540.01C151.82 540.18 151.9 540.47 151.8 540.73C151.71 540.99 151.47 541.16 151.19 541.16ZM178.13 609.9L102.15 609.9C101.79 609.9 101.5 609.61 101.5 609.25L101.38 562.86C101.38 562.66 101.46 562.48 101.61 562.36L120.34 546.95C120.62 546.72 121.03 546.76 121.25 547.04C121.48 547.32 121.44 547.73 121.17 547.96L102.68 563.16L102.8 608.6L177.47 608.6L177.36 563.16L159.1 547.95C158.83 547.72 158.79 547.31 159.02 547.04C159.25 546.76 159.66 546.72 159.94 546.95L178.42 562.36C178.57 562.48 178.66 562.66 178.66 562.86L178.78 609.25C178.78 609.42 178.71 609.59 178.59 609.71C178.46 609.83 178.3 609.9 178.13 609.9ZM140.26 594.78C140.11 594.78 139.97 594.73 139.85 594.63L101.73 563.26C101.46 563.03 101.42 562.62 101.64 562.35C101.87 562.07 102.28 562.03 102.56 562.26L140.26 593.29L177.71 562.26C177.99 562.03 178.4 562.07 178.63 562.34C178.85 562.62 178.82 563.03 178.54 563.26L140.68 594.63C140.56 594.73 140.41 594.78 140.26 594.78ZM178.13 609.9C177.98 609.9 177.83 609.85 177.71 609.75L149.63 586.49C149.35 586.26 149.31 585.85 149.54 585.57C149.77 585.29 150.18 585.26 150.45 585.48L178.54 608.75C178.82 608.98 178.85 609.39 178.63 609.66C178.5 609.82 178.31 609.9 178.13 609.9ZM102.15 609.9C101.96 609.9 101.77 609.82 101.64 609.66C101.42 609.39 101.46 608.98 101.73 608.75L129.9 585.57C130.18 585.34 130.59 585.38 130.81 585.66C131.04 585.94 131 586.35 130.72 586.58L102.56 609.75C102.44 609.85 102.29 609.9 102.15 609.9Z"/><path fill="#8ddefc" d="M120.75 578.45L120.75 540.51L159.52 540.51L159.52 578.45"/><path fill="#161616" d="M159.52 579.1C159.16 579.1 158.87 578.81 158.87 578.45L158.87 541.16L121.4 541.16L121.4 578.45C121.4 578.81 121.11 579.1 120.75 579.1C120.39 579.1 120.1 578.81 120.1 578.45L120.1 540.51C120.1 540.15 120.39 539.86 120.75 539.86L159.52 539.86C159.88 539.86 160.17 540.15 160.17 540.51L160.17 578.45C160.17 578.81 159.88 579.1 159.52 579.1ZM153.17 550.82L127.1 550.82C126.74 550.82 126.45 550.52 126.45 550.17C126.45 549.81 126.74 549.52 127.1 549.52L153.17 549.52C153.53 549.52 153.82 549.81 153.82 550.17C153.82 550.52 153.53 550.82 153.17 550.82ZM153.17 555.2L127.1 555.2C126.74 555.2 126.45 554.91 126.45 554.55C126.45 554.19 126.74 553.9 127.1 553.9L153.17 553.9C153.53 553.9 153.82 554.19 153.82 554.55C153.82 554.91 153.53 555.2 153.17 555.2ZM153.17 559.58L127.1 559.58C126.74 559.58 126.45 559.29 126.45 558.93C126.45 558.57 126.74 558.28 127.1 558.28L153.17 558.28C153.53 558.28 153.82 558.57 153.82 558.93C153.82 559.29 153.53 559.58 153.17 559.58ZM153.17 563.96L127.1 563.96C126.74 563.96 126.45 563.66 126.45 563.31C126.45 562.95 126.74 562.65 127.1 562.65L153.17 562.65C153.53 562.65 153.82 562.95 153.82 563.31C153.82 563.66 153.53 563.96 153.17 563.96ZM153.17 568.34L127.1 568.34C126.74 568.34 126.45 568.05 126.45 567.69C126.45 567.33 126.74 567.04 127.1 567.04L153.17 567.04C153.53 567.04 153.82 567.33 153.82 567.69C153.82 568.05 153.53 568.34 153.17 568.34ZM153.17 572.71L127.1 572.71C126.74 572.71 126.45 572.42 126.45 572.06C126.45 571.7 126.74 571.41 127.1 571.41L153.17 571.41C153.53 571.41 153.82 571.7 153.82 572.06C153.82 572.42 153.53 572.71 153.17 572.71Z"/></svg>
